<?xml version="1.0" encoding="UTF-8" standalone="no"?>
<!-- Created with Inkscape (http://www.inkscape.org/) by Marsupilami -->

<svg
   xmlns:dc="http://purl.org/dc/elements/1.1/"
   xmlns:cc="http://creativecommons.org/ns#"
   xmlns:rdf="http://www.w3.org/1999/02/22-rdf-syntax-ns#"
   xmlns:svg="http://www.w3.org/2000/svg"
   xmlns="http://www.w3.org/2000/svg"
   xmlns:sodipodi="http://sodipodi.sourceforge.net/DTD/sodipodi-0.dtd"
   xmlns:inkscape="http://www.inkscape.org/namespaces/inkscape"
   version="1.0"
   width="1024"
   height="405"
   viewBox="0 0 141.68695 56.054741"
   id="svg2268"
   sodipodi:docname="Xing_logo.svg"
   inkscape:version="0.92.2 (5c3e80d, 2017-08-06)">
  <metadata
     id="metadata9">
    <rdf:RDF>
      <cc:Work
         rdf:about="">
        <dc:format>image/svg+xml</dc:format>
        <dc:type
           rdf:resource="http://purl.org/dc/dcmitype/StillImage" />
      </cc:Work>
    </rdf:RDF>
  </metadata>
  <sodipodi:namedview
     pagecolor="#ffffff"
     bordercolor="#666666"
     borderopacity="1"
     objecttolerance="10"
     gridtolerance="10"
     guidetolerance="10"
     inkscape:pageopacity="0"
     inkscape:pageshadow="2"
     inkscape:window-width="1920"
     inkscape:window-height="1001"
     id="namedview7"
     showgrid="false"
     inkscape:zoom="0.43066406"
     inkscape:cx="512"
     inkscape:cy="202.5"
     inkscape:window-x="-9"
     inkscape:window-y="-9"
     inkscape:window-maximized="1"
     inkscape:current-layer="svg2268" />
  <defs
     id="defs2270" />
  <path
     inkscape:connector-curvature="0"
     id="path19359"
     style="fill:#e5e5e6;fill-opacity:1;fill-rule:nonzero;stroke:none"
     d="m 112.1875,7.53125 c -0.33125,1e-7 -0.61,0.11625 -0.75,0.34375 -0.145,0.2350001 -0.1225,0.5375 0.0312,0.84375 l 3.71875,6.4375 c 0.006,0.0125 0.006,0.02 0,0.03125 L 109.34375,25.5 c -0.1525,0.303751 -0.145,0.60875 0,0.84375 0.14,0.226249 0.3875,0.375 0.71875,0.375 h 5.5 c 0.8225,0 1.21875,-0.555 1.5,-1.0625 0,0 5.715,-10.1075 5.9375,-10.5 C 122.9775,15.12 119.21875,8.5625 119.21875,8.5625 118.945,8.0750002 118.53125,7.53125 117.6875,7.53125 Z M 87.96875,19.5625 c -8.534996,1e-6 -13.21875,4.98 -13.21875,14 v 9.5 c -3e-6,8.614998 4.10125,13 12.21875,13 6.563749,-10e-7 11.87875,-2.56625 12.25,-2.75 V 36.25 c -10e-7,-0.529999 -0.37625,-0.90625 -0.90625,-0.90625 h -10.875 c -0.53,-2e-6 -0.90625,0.37625 -0.90625,0.90625 v 4.375 c 0,0.53 0.37625,0.90625 0.90625,0.90625 H 92.5 c 0.02125,-10e-7 0.03125,0.01 0.03125,0.03125 v 7.375 c -2e-6,0.01625 -0.0175,0.02625 -0.03125,0.03125 -0.02375,0.01 -2.385,0.90625 -5.3125,0.90625 -3.8675,0 -5.75,-2.4 -5.75,-7.3125 v -9 c -2e-6,-2.553751 0.5025,-4.43125 1.53125,-5.71875 C 84.095,26.435 85.7975,25.75 88.21875,25.75 h 1.0625 c 3.514998,0 6.23,0.785 7.96875,1.34375 C 97.520001,27.18 97.7675,27.135 97.9375,27 c 0.173747,-0.1375 0.28125,-0.37125 0.28125,-0.65625 v -4.1875 c 2e-6,-0.473749 -0.2325,-0.74 -0.9375,-1.09375 -0.898748,-0.45 -3.4575,-1.5 -7.875,-1.5 z m -86.8125,0.46875 c -0.2525,0 -0.44874998,0.0975 -0.5625,0.28125 -0.12375,0.19875 -0.12250001,0.473749 0,0.71875 l 8.9375,16.28125 c 0.00625,0.01125 0.00625,0.05125 0,0.0625 l -9.4375,17.09375 c -0.12375,0.24625 -0.12375,0.52 0,0.71875 0.1125,0.18375 0.31,0.281251 0.5625,0.28125 H 6.75 c 0.6975,0 0.9462501,-0.391249 1.21875,-0.9375 l 6.25,-11.5 C 14.225,43.01875 14.23625,43.000001 14.25,43 c 0.015,0 0.025,0.01875 0.03125,0.03125 0,0 6.28,11.49875 6.28125,11.5 0.27125,0.545 0.490001,0.937501 1.1875,0.9375 h 6.125 c 0.2525,0 0.449999,-0.0975 0.5625,-0.28125 0.0625,-0.1 0.09375,-0.222499 0.09375,-0.34375 0,-0.1225 -0.0325,-0.25125 -0.09375,-0.375 -0.0012,-0.0025 -9.46875,-17.093749 -9.46875,-17.09375 -0.0038,-0.0063 1e-6,-0.025 0,-0.03125 0,-0.0063 -0.0038,-0.02625 0,-0.03125 L 27.9375,21.03125 c 0.06125,-0.12375 0.09375,-0.252499 0.09375,-0.375 0,-0.12125 -0.0325,-0.245 -0.09375,-0.34375 -0.11375,-0.18375 -0.311251,-0.28125 -0.5625,-0.28125 H 21.25 c -0.6975,0 -0.94625,0.3925 -1.21875,0.9375 l -5.75,10.6875 C 14.275,31.6675 14.265,31.687501 14.25,31.6875 c -0.01375,0 -0.025,-0.02 -0.03125,-0.03125 0,0 -5.7487496,-10.6875 -5.75,-10.6875 -0.2275,-0.4575 -0.4675002,-0.9375 -1.21875,-0.9375 z m 31.8125,0 c -0.52875,0 -0.906249,0.3775 -0.90625,0.90625 v 33.625 c 0,0.52875 0.377499,0.906249 0.90625,0.90625 h 4.84375 c 0.52875,0 0.906251,-0.3775 0.90625,-0.90625 v -33.625 c 0,-0.52875 -0.377501,-0.90625 -0.90625,-0.90625 z m 12.9375,0 c -0.52875,0 -0.937502,0.3775 -0.9375,0.90625 v 33.625 c 0,0.52875 0.40875,0.906249 0.9375,0.90625 H 50.75 c 0.52875,0 0.906251,-0.3775 0.90625,-0.90625 V 34.28125 c 0,-0.0175 0.015,-0.0275 0.03125,-0.03125 0.01625,-0.005 0.02375,0.01625 0.03125,0.03125 0,0 10.499998,20.248748 10.5,20.25 0.21625,0.4325 0.552501,0.937499 1.21875,0.9375 H 68.5 c 0.52875,0 0.906248,-0.3775 0.90625,-0.90625 v -33.625 c 0,-0.52875 -0.377504,-0.90625 -0.90625,-0.90625 h -4.84375 c -0.52875,0 -0.906252,0.3775 -0.90625,0.90625 v 20.25 c 0,0.0175 -0.015,0.0275 -0.03125,0.03125 -0.01625,0.005 -0.05375,0.015 -0.0625,0 0,0 -10.5,-20.248751 -10.5,-20.25 -0.23,-0.45625 -0.467501,-0.9375 -1.21875,-0.9375 z" />
  <path
     inkscape:connector-curvature="0"
     id="path19375"
     style="fill:#b2b2b4;fill-opacity:1;fill-rule:nonzero;stroke:none"
     d="m 135.29344,0 c -0.82125,0 -1.1775,0.5175 -1.4725,1.0475 0,0 -11.84875,21.0125 -12.23875,21.7025 0.02,0.0375 7.815,14.3375 7.815,14.3375 0.2725,0.4875 0.69375,1.0475 1.53625,1.0475 h 5.49375 c 0.33125,0 0.59,-0.125 0.73,-0.35125 0.14625,-0.235 0.1425,-0.545 -0.0112,-0.85 L 129.39224,22.7675 c -0.007,-0.0112 -0.007,-0.025 0,-0.0362 l 12.1775,-21.53125 c 0.1525,-0.30375 0.15625,-0.61375 0.0112,-0.84875 -0.14,-0.22625 -0.4,-0.35125 -0.73125,-0.35125 z" />
</svg>
